<svg width="177" height="70" viewBox="0 0 177 70" fill="none" xmlns="http://www.w3.org/2000/svg">
<g filter="url(#filter0_d_202_14)">
<path d="M40.392 40.112L40.824 41.516C40.896 41.756 40.932 41.984 40.932 42.2C40.932 42.896 40.632 43.436 40.032 43.82C39.456 44.204 38.772 44.396 37.98 44.396C37.356 44.396 36.816 44.264 36.36 44C35.904 43.736 35.604 43.364 35.46 42.884L34.236 38.24L26.892 38.204L25.632 42.776C25.488 43.328 25.188 43.736 24.732 44C24.3 44.24 23.772 44.36 23.148 44.36C22.356 44.36 21.66 44.168 21.06 43.784C20.46 43.376 20.16 42.848 20.16 42.2C20.16 41.96 20.196 41.72 20.268 41.48L24.408 29.024L26.424 22.868C26.976 21.236 27.576 20.084 28.224 19.412C28.872 18.716 29.748 18.368 30.852 18.368C31.908 18.368 32.736 18.68 33.336 19.304C33.96 19.904 34.524 20.984 35.028 22.544C36.348 26.72 37.5 30.428 38.484 33.668H39.456C40.632 33.668 41.22 34.424 41.22 35.936C41.22 37.472 40.776 38.24 39.888 38.24H39.852L40.392 40.112ZM33.012 33.596L32.544 31.904L31.644 28.736L31.284 27.476C31.14 26.948 31.02 26.564 30.924 26.324C30.828 26.084 30.732 25.964 30.636 25.964C30.516 25.964 30.42 26.072 30.348 26.288C30.276 26.504 30.168 26.888 30.024 27.44L29.736 28.484L28.26 33.56L33.012 33.596ZM47.9976 43.676C47.2296 43.676 46.6176 43.472 46.1616 43.064C45.7056 42.656 45.4776 42.14 45.4776 41.516L45.2616 17.684C45.2616 17.036 45.5136 16.508 46.0176 16.1C46.5216 15.692 47.1576 15.488 47.9256 15.488C48.6936 15.488 49.3056 15.692 49.7616 16.1C50.2416 16.484 50.4816 17 50.4816 17.648L50.6616 41.48C50.6616 42.152 50.3976 42.692 49.8696 43.1C49.3656 43.484 48.7416 43.676 47.9976 43.676ZM64.2527 44.36C62.0687 44.36 60.2207 43.952 58.7087 43.136C57.2207 42.32 56.1047 41.192 55.3607 39.752C54.6167 38.312 54.2447 36.68 54.2447 34.856C54.2447 33.032 54.6647 31.412 55.5047 29.996C56.3687 28.556 57.5327 27.44 58.9967 26.648C60.4847 25.856 62.1407 25.46 63.9647 25.46C65.5967 25.46 67.0847 25.784 68.4287 26.432C69.7967 27.08 70.8647 28.016 71.6327 29.24C72.4247 30.44 72.8207 31.856 72.8207 33.488C72.8207 34.52 72.6287 35.264 72.2447 35.72C71.8847 36.152 71.2607 36.368 70.3727 36.368H58.7447C58.7447 36.944 58.9487 37.532 59.3567 38.132C59.7647 38.708 60.3767 39.2 61.1927 39.608C62.0087 40.016 62.9807 40.22 64.1087 40.22C65.1167 40.22 65.9087 40.076 66.4847 39.788C67.0607 39.476 67.6607 39.02 68.2847 38.42C68.7407 38.012 69.2087 37.808 69.6887 37.808C70.2407 37.808 70.7567 38.024 71.2367 38.456C71.7167 38.864 71.9567 39.332 71.9567 39.86C71.9567 40.292 71.8127 40.712 71.5247 41.12C71.0207 41.912 70.1687 42.656 68.9687 43.352C67.7687 44.024 66.1967 44.36 64.2527 44.36ZM68.0687 33.128C68.2847 33.128 68.4167 33.092 68.4647 33.02C68.5367 32.948 68.5727 32.816 68.5727 32.624C68.5727 31.688 68.1167 30.908 67.2047 30.284C66.3167 29.66 65.2127 29.348 63.8927 29.348C62.8367 29.348 61.9127 29.552 61.1207 29.96C60.3527 30.368 59.7647 30.872 59.3567 31.472C58.9487 32.048 58.7447 32.6 58.7447 33.128H68.0687ZM91.386 41.048C91.626 41.36 91.746 41.684 91.746 42.02C91.746 42.62 91.47 43.16 90.918 43.64C90.39 44.12 89.802 44.36 89.154 44.36C88.578 44.36 88.098 44.108 87.714 43.604L83.646 38.312C82.254 40.376 81.078 42.068 80.118 43.388C79.902 43.7 79.626 43.928 79.29 44.072C78.954 44.24 78.606 44.324 78.246 44.324C77.55 44.324 76.95 44.084 76.446 43.604C75.942 43.124 75.69 42.608 75.69 42.056C75.69 41.768 75.762 41.516 75.906 41.3C76.842 40.004 78.438 37.724 80.694 34.46L76.086 28.412C75.918 28.172 75.834 27.908 75.834 27.62C75.834 27.068 76.122 26.552 76.698 26.072C77.274 25.592 77.874 25.352 78.498 25.352C79.098 25.352 79.554 25.556 79.866 25.964L83.394 30.572L84.546 28.88L86.562 25.964C86.85 25.556 87.246 25.352 87.75 25.352C88.398 25.352 89.022 25.616 89.622 26.144C90.222 26.672 90.522 27.2 90.522 27.728C90.522 27.944 90.474 28.112 90.378 28.232L89.334 29.816C88.014 31.784 87.006 33.296 86.31 34.352L91.386 41.048Z" fill="#736565"/>
<path d="M105.628 44.036C103.828 44.036 102.208 43.664 100.768 42.92C99.352 42.152 98.236 41.156 97.42 39.932C96.628 38.684 96.232 37.352 96.232 35.936C96.232 35.024 96.46 34.364 96.916 33.956C97.396 33.548 98.008 33.344 98.752 33.344C100.504 33.344 101.416 34.076 101.488 35.54C101.56 36.764 102.004 37.712 102.82 38.384C103.636 39.032 104.572 39.356 105.628 39.356C106.54 39.356 107.356 39.152 108.076 38.744C108.796 38.336 109.156 37.736 109.156 36.944C109.156 36.32 108.928 35.804 108.472 35.396C108.016 34.964 107.476 34.64 106.852 34.424C106.252 34.184 105.412 33.908 104.332 33.596C102.94 33.212 101.704 32.792 100.624 32.336C99.544 31.88 98.524 31.148 97.564 30.14C96.628 29.108 96.16 27.788 96.16 26.18C96.16 24.716 96.556 23.396 97.348 22.22C98.164 21.044 99.256 20.132 100.624 19.484C101.992 18.812 103.492 18.476 105.124 18.476C106.828 18.476 108.364 18.836 109.732 19.556C111.124 20.252 112.216 21.188 113.008 22.364C113.8 23.54 114.196 24.776 114.196 26.072C114.196 27.656 113.332 28.448 111.604 28.448C110.86 28.448 110.296 28.268 109.912 27.908C109.552 27.548 109.264 26.96 109.048 26.144C108.832 25.328 108.388 24.62 107.716 24.02C107.068 23.42 106.204 23.12 105.124 23.12C104.068 23.12 103.18 23.408 102.46 23.984C101.74 24.536 101.38 25.292 101.38 26.252C101.38 26.924 101.644 27.416 102.172 27.728C102.724 28.04 103.768 28.424 105.304 28.88C105.448 28.928 105.616 28.988 105.808 29.06C106 29.108 106.204 29.168 106.42 29.24C107.74 29.648 108.952 30.116 110.056 30.644C111.16 31.172 112.156 31.952 113.044 32.984C113.932 34.016 114.376 35.3 114.376 36.836C114.376 38.228 113.98 39.476 113.188 40.58C112.42 41.66 111.364 42.512 110.02 43.136C108.7 43.736 107.236 44.036 105.628 44.036Z" fill="#FF9901"/>
<path d="M134.604 38.312C134.604 39.152 134.676 39.812 134.82 40.292C134.964 40.772 135.12 41.156 135.288 41.444C135.456 41.732 135.54 41.9 135.54 41.948C135.54 42.548 135.312 43.052 134.856 43.46C134.424 43.844 133.836 44.036 133.092 44.036C132.636 44.036 132.132 43.796 131.58 43.316C131.052 42.812 130.704 42.26 130.536 41.66C129.696 43.268 128.124 44.072 125.82 44.072C123.708 44.072 122.064 43.328 120.888 41.84C119.736 40.352 119.16 38.456 119.16 36.152V27.656C119.16 27.104 119.4 26.66 119.88 26.324C120.384 25.964 120.996 25.784 121.716 25.784C122.436 25.784 123.048 25.964 123.552 26.324C124.08 26.66 124.344 27.104 124.344 27.656V36.08C124.344 37.112 124.524 38.036 124.884 38.852C125.244 39.668 125.796 40.076 126.54 40.076C127.476 40.076 128.16 39.656 128.592 38.816C129.048 37.976 129.276 36.5 129.276 34.388V27.728C129.276 27.08 129.504 26.564 129.96 26.18C130.44 25.796 131.064 25.604 131.832 25.604C132.624 25.604 133.26 25.796 133.74 26.18C134.244 26.564 134.496 27.08 134.496 27.728L134.604 38.312ZM149.841 25.604C151.953 25.604 153.585 26.348 154.737 27.836C155.913 29.3 156.501 31.472 156.501 34.352L156.465 42.488C156.465 42.992 156.213 43.376 155.709 43.64C155.229 43.904 154.629 44.036 153.909 44.036C153.213 44.036 152.589 43.916 152.037 43.676C151.509 43.436 151.245 43.1 151.245 42.668L151.281 34.316C151.281 32.564 151.089 31.34 150.705 30.644C150.321 29.948 149.721 29.6 148.905 29.6C148.209 29.6 147.657 29.912 147.249 30.536C146.841 31.16 146.493 32.372 146.205 34.172C146.037 35.18 145.953 36.296 145.953 37.52L145.989 42.164C145.989 42.788 145.749 43.268 145.269 43.604C144.813 43.916 144.189 44.072 143.397 44.072C142.581 44.072 141.933 43.904 141.453 43.568C140.997 43.232 140.769 42.764 140.769 42.164C140.769 37.172 140.697 33.284 140.553 30.5C140.529 30.212 140.457 29.948 140.337 29.708C140.241 29.444 140.121 29.204 139.977 28.988C139.833 28.772 139.725 28.604 139.653 28.484C139.509 28.22 139.437 27.956 139.437 27.692C139.437 27.188 139.725 26.72 140.301 26.288C140.901 25.832 141.477 25.604 142.029 25.604C142.293 25.604 142.545 25.688 142.785 25.856C143.049 26.024 143.337 26.3 143.649 26.684C143.913 27.02 144.105 27.32 144.225 27.584C144.345 27.848 144.405 28.148 144.405 28.484V28.808C144.837 27.896 145.485 27.14 146.349 26.54C147.237 25.916 148.401 25.604 149.841 25.604Z" fill="#736565"/>
</g>
<defs>
<filter id="filter0_d_202_14" x="0.160004" y="0.487976" width="176.341" height="68.908" filterUnits="userSpaceOnUse" color-interpolation-filters="sRGB">
<feFlood flood-opacity="0" result="BackgroundImageFix"/>
<feColorMatrix in="SourceAlpha" type="matrix" values="0 0 0 0 0 0 0 0 0 0 0 0 0 0 0 0 0 0 127 0" result="hardAlpha"/>
<feOffset dy="5"/>
<feGaussianBlur stdDeviation="10"/>
<feComposite in2="hardAlpha" operator="out"/>
<feColorMatrix type="matrix" values="0 0 0 0 0.43766 0 0 0 0 0.426396 0 0 0 0 0.15605 0 0 0 0.5 0"/>
<feBlend mode="normal" in2="BackgroundImageFix" result="effect1_dropShadow_202_14"/>
<feBlend mode="normal" in="SourceGraphic" in2="effect1_dropShadow_202_14" result="shape"/>
</filter>
</defs>
</svg>
